<svg width="20" height="20" viewBox="0 0 20 20" fill="none" xmlns="http://www.w3.org/2000/svg">
<g clip-path="url(#clip0_99_4759)">
<path d="M10 20C4.48583 20 0 15.5142 0 10C0 4.48583 4.48583 0 10 0C15.5142 0 20 4.48583 20 10C20 15.5142 15.5142 20 10 20ZM10 1.66667C5.405 1.66667 1.66667 5.405 1.66667 10C1.66667 14.595 5.405 18.3333 10 18.3333C14.595 18.3333 18.3333 14.595 18.3333 10C18.3333 5.405 14.595 1.66667 10 1.66667ZM10 16.6667C6.32417 16.6667 3.33333 13.6758 3.33333 10C3.33333 6.32417 6.32417 3.33333 10 3.33333C13.6758 3.33333 16.6667 6.32417 16.6667 10C16.6667 13.6758 13.6758 16.6667 10 16.6667ZM10 5C7.2425 5 5 7.2425 5 10C5 12.7575 7.2425 15 10 15C12.7575 15 15 12.7575 15 10C15 7.2425 12.7575 5 10 5ZM10 13.3333C8.16167 13.3333 6.66667 11.8383 6.66667 10C6.66667 8.16167 8.16167 6.66667 10 6.66667C11.8383 6.66667 13.3333 8.16167 13.3333 10C13.3333 11.8383 11.8383 13.3333 10 13.3333ZM10 8.33333C9.08083 8.33333 8.33333 9.08083 8.33333 10C8.33333 10.9192 9.08083 11.6667 10 11.6667C10.9192 11.6667 11.6667 10.9192 11.6667 10C11.6667 9.08083 10.9192 8.33333 10 8.33333Z" fill="#8719E0"/>
</g>
<defs>
<clipPath id="clip0_99_4759">
<rect width="20" height="20" fill="white"/>
</clipPath>
</defs>
</svg>
